<svg xmlns="http://www.w3.org/2000/svg" viewBox="0 0 128 96"><polygon points="76.367 48.85 86.471 63.485 99.227 63.485 85.197 46.996 97.828 32 85.041 32 76.367 45.06 76.367 22.212 66.522 22.212 66.522 63.485 76.367 63.485 76.367 48.85" fill="#fff"/><path d="M51.43024,64.12927a31.42326,31.42326,0,0,0,11.46234-1.93188L61.593,55.56665a27.99409,27.99409,0,0,1-8.74018,1.2879c-4.59552,0-8.60553-1.93188-8.93145-5.98877H64.31714a23.18415,23.18415,0,0,0,.32391-3.8637c0-7.79377-3.88324-15.7085-14.11426-15.7085h-.002c-11.00964,0-15.99341,8.82019-15.99341,16.80127C34.53143,57.94537,40.686,64.12927,51.43024,64.12927ZM49.93939,37.79553c4.535,0,5.57117,3.99054,5.57117,6.37317H43.857C44.11456,41.53436,45.79663,37.79553,49.93939,37.79553Z" fill="#fff"/><path d="M16.37976,64.19366c8.48065,0,16.70374-5.27844,16.70374-16.80517,0-9.46417-6.47266-16.09491-16.18659-16.09491a19.956,19.956,0,0,0-6.701,1.09863V22.21191H0v26.603C.38635,58.46832,7.384,64.19366,16.37976,64.19366ZM10.19592,46.68207c.24781-4.295,2.06452-8.43775,6.43952-8.43775,4.46862,0,6.28338,4.76722,6.28338,9.46418,0,5.66821-2.46032,9.46734-6.28247,9.468l.001.00006h-.002l.00091-.00006c-3.92547-.00061-6.15747-3.53235-6.44043-8.39862Z" fill="#fff"/><polygon points="0 94.748 124.386 77.361 124.386 67.478 0 84.865 0 94.748" fill="#fff"/><path d="M111.29633,64.19366C119.77692,64.19366,128,58.91522,128,47.38849c0-9.46417-6.46875-16.09491-16.18463-16.09491h-.002c-10.16468,0-16.89887,6.502-16.89887,16.67444C94.91455,58.14246,102.037,64.19366,111.29633,64.19366Zm.26147-25.94738c4.46472,0,6.27753,4.76526,6.27753,9.46417,0,5.66675-2.45874,9.46411-6.27753,9.46411v.002c-4.211,0-6.47467-4.05688-6.47467-9.46606C105.08313,43.074,106.82959,38.24628,111.5578,38.24628Z" fill="#fff"/></svg>