<svg xmlns="http://www.w3.org/2000/svg" xmlns:xlink="http://www.w3.org/1999/xlink" viewBox="0 0 369 52"><defs><clipPath id="a"><rect width="369" height="52" fill="none"/></clipPath></defs><line x1="57" y1="14.89296" x2="79" y2="36.89296" fill="none" stroke="#fff" stroke-miterlimit="10" stroke-width="1.25"/><line x1="79" y1="14.89296" x2="57" y2="36.89296" fill="none" stroke="#fff" stroke-miterlimit="10" stroke-width="1.25"/><path d="M149.98912,13.573a12,12,0,0,0-8.48535-3.51477H124v32h12v-20h3.84692a4.00637,4.00637,0,0,1,2.83118,1.17152l4.14478,4.14208A4.005,4.005,0,0,1,148,30.20032V42.05823h12V28.54346a12.0057,12.0057,0,0,0-3.52015-8.48523Z" fill="#fff"/><path d="M212,10.05823V21.91614a4.00486,4.00486,0,0,1-1.17713,2.82837l-4.1477,4.1421a3.99939,3.99939,0,0,1-2.82837,1.17162h-5.76428A11.9832,11.9832,0,0,0,200,23.57288V10.05823H188V21.91614a4.00489,4.00489,0,0,1-1.17712,2.82837l-4.14771,4.1421a3.99938,3.99938,0,0,1-2.82837,1.17162H176v-20H164v32h17.50379a12.00605,12.00605,0,0,0,8.488-3.51477L194,34.537v7.52124h11.50378a12.00608,12.00608,0,0,0,8.488-3.51477l6.488-6.48535A12.00529,12.00529,0,0,0,224,23.57288V10.05823Z" fill="#fff"/><polygon points="92 22.058 100 22.058 100 42.058 112 42.058 112 22.058 120 22.058 120 10.058 92 10.058 92 22.058" fill="#fff"/><path d="M0,4V48H44V4Zm20.34863,12.1134H19.523c-.4295-4.29431-1.28857-5.02081-5.11993-5.02081H11.36384v8.19189h2.41144c2.60962,0,2.7417-.42932,2.93982-2.47754H17.475v5.97882H16.7151c-.19812-2.04779-.3302-2.44446-2.93982-2.44446H11.36384v7.10218c0,1.45343.39655,1.78332,3.072,1.78332v.892H5.02168v-.892c1.94916,0,2.64252-.09894,2.64252-1.68439V12.678c0-1.58544-.69336-1.68463-2.64252-1.68463v-.89172H17.541a14.34891,14.34891,0,0,0,2.80767-.16528Zm19.906-.00018h-.82593c-.42938-4.29413-1.288-5.02082-5.11981-5.02082H33.2516V27.44346c0,1.55236.59485,1.78381,3.07208,1.78381v.89154H26.44734v-.89154c2.47717,0,3.1048-.23145,3.1048-1.78381V11.09238H28.495c-3.83161,0-4.69068.72669-5.11975,5.02082h-.82581V9.93638a14.35926,14.35926,0,0,0,2.80762.165H37.44679a14.35982,14.35982,0,0,0,2.8078-.165Z" fill="#fff"/><g clip-path="url(#a)"><path d="M239.67188,10.03711h9.71874c11.15137,0,16.57032,6.35937,16.57032,15.67383v.40332c0,9.31543-5.41895,15.94336-16.66016,15.94336h-9.6289Zm9.45019,27.31836c7.165,0,10.61328-4.12012,10.61328-11.19629v-.3584c0-6.89648-3.13476-11.06152-10.6582-11.06152h-3.44824V37.35547Z" fill="#fff"/><path d="M270.30176,33.6377v-15.002h5.41894v14.375c0,3.53809,1.47754,5.15039,4.61231,5.15039a5.22559,5.22559,0,0,0,5.46387-5.59765V18.63574h5.41894V42.05762h-5.41894V38.38574c-1.16407,2.28321-3.62793,4.12012-7.43458,4.12012C273.75,42.50586,270.30176,39.86328,270.30176,33.6377Z" fill="#fff"/><path d="M302.36426,38.2959v3.76172h-5.41895V7.79785h5.41895V22.39746a9.0527,9.0527,0,0,1,7.6582-4.25488c5.86621,0,10.38965,4.34375,10.38965,11.91308v.3584c0,7.52344-4.34375,12.0918-10.38965,12.0918A8.35539,8.35539,0,0,1,302.36426,38.2959Zm12.49512-7.793v-.3584c0-5.19433-2.6875-7.74707-6.22559-7.74707-3.76172,0-6.44922,2.55274-6.44922,7.74707v.3584c0,5.24023,2.55273,7.70312,6.49414,7.70312C312.665,38.20605,314.85938,35.51953,314.85938,30.50293Z" fill="#fff"/><path d="M324.75391,7.79785h5.41894V42.05762h-5.41894Z" fill="#fff"/><path d="M335.63477,11.69336a3.2275,3.2275,0,1,1,3.22461,3.09082A3.13671,3.13671,0,0,1,335.63477,11.69336Zm.582,6.94238h5.41894V42.05762H336.2168Z" fill="#fff"/><path d="M347.54688,18.63574h5.41894v3.7168c1.11914-2.28418,3.7168-4.21,7.56836-4.21,4.70215,0,8.0166,2.73242,8.0166,9.18066V42.05762h-5.41894V27.81641c0-3.53809-1.4336-5.15039-4.65723-5.15039a5.19221,5.19221,0,0,0-5.50879,5.59765v13.794h-5.41894Z" fill="#fff"/></g></svg>