<svg xmlns="http://www.w3.org/2000/svg" viewBox="0 0 229.83464 64"><path d="M75.23958,8.865H99.52792v4.36467H89.84877V37.99294h-4.93V13.22969H75.23959V8.865Z" fill="#fff"/><path d="M114.7477,8.865l11.19435,29.12792h-5.02049l-2.98516-8.05089H106.78728l-3.00778,8.05089H98.80424L109.99859,8.865Zm-6.4,16.80283h7.96042l-3.98021-10.76467Z" fill="#fff"/><path d="M129.877,8.865h4.93V33.583h13.99859v4.4099H129.877Z" fill="#fff"/><path d="M172.59647,8.865v4.36467H158.417v7.689h12.84523v4.31944H158.417V33.583h14.17951v4.4099H153.57739V8.865Z" fill="#fff"/><path d="M201.1364,37.99294h-3.79929L182.45655,16.80283V37.99294h-4.74912V8.865h4.65865l14.04381,20.19505V8.865H201.159V37.99294Z" fill="#fff"/><path d="M205.5463,8.865h24.28834v4.36467h-9.67915V37.99294h-4.93V13.22969h-9.67915V8.865Z" fill="#fff"/><path d="M0,0V64H64V0ZM29.60283,17.617H28.40425c-.63323-6.24169-1.877-7.30459-7.44029-7.30459h-4.4325v11.918h3.5053c3.79929,0,3.9802-.63323,4.27419-3.59577h1.10814v8.70672H24.31095c-.294-2.98516-.4749-3.55053-4.27419-3.55053h-3.5053v10.335c0,2.10318.588,2.60071,4.47773,2.60071v1.28905H7.30459V36.72651c2.82686,0,3.84452-.13569,3.84452-2.4424v-21.665c0-2.3067-1.01766-2.4424-3.84452-2.4424v-1.289h18.205a19.66463,19.66463,0,0,0,4.09329-.24876Zm28.96961-.02261H57.37385c-.63321-6.24171-1.877-7.30461-7.44028-7.30461H48.39576V34.08057c0,2.26148.85936,2.6007,4.47774,2.6007v1.28905H38.51307V36.68127c3.59577,0,4.523-.33922,4.523-2.6007V10.31238H41.49823c-5.56326,0-6.82968,1.06288-7.44028,7.30459H32.85936V8.63887a21.34158,21.34158,0,0,0,4.09328.24876H54.47916V8.865a19.66532,19.66532,0,0,0,4.09328-.24876Z" fill="#fff"/></svg>