<svg xmlns="http://www.w3.org/2000/svg" viewBox="0 0 631 128"><polygon points="35.53 22.164 15.29 22.164 15.29 0.164 0 0.164 0 56.485 15.29 56.485 15.29 34.485 35.53 34.485 35.53 56.485 50.82 56.485 50.82 0.164 35.53 0.164 35.53 22.164" fill="#fff"/><path d="M90.054,17.69562a19.27993,19.27993,0,0,0-6.13245-2.94229,28.86706,28.86706,0,0,0-8.14-1.05891,24.78667,24.78667,0,0,0-10.50493,1.96636,15.207,15.207,0,0,0-6.39376,5.225,14.3968,14.3968,0,0,0-2.46131,7.10865h13.97a4.025,4.025,0,0,1,1.63631-2.9012,6.05032,6.05032,0,0,1,3.53364-.94881,5.56106,5.56106,0,0,1,3.24509.88006,2.89516,2.89516,0,0,1,1.265,2.53v.10984a2.31262,2.31262,0,0,1-.9625,1.939,7.60026,7.60026,0,0,1-3.12128,1.12739,56.939,56.939,0,0,1-5.70626.67381,29.5829,29.5829,0,0,0-6.09123,1.07234A15.5494,15.5494,0,0,0,59.254,34.86944a10.672,10.672,0,0,0-3.3,4.02886,13.57542,13.57542,0,0,0-1.18245,5.92621,12.53552,12.53552,0,0,0,1.76,6.93006,10.65322,10.65322,0,0,0,4.85372,4.05625,17.89316,17.89316,0,0,0,7.13632,1.33364,18.22916,18.22916,0,0,0,5.04614-.65984,11.49009,11.49009,0,0,0,4.09761-2.11755,12.29227,12.29227,0,0,0,3.06623-3.82261h.32992v5.94016H95.2516V27.55454a11.48463,11.48463,0,0,0-1.33391-5.45891A13.19268,13.19268,0,0,0,90.054,17.69562ZM80.18151,41.5245a5.48544,5.48544,0,0,1-.9625,3.27261,6.27761,6.27761,0,0,1-2.48883,2.06251,7.58186,7.58186,0,0,1-3.25865.71489,5.09855,5.09855,0,0,1-3.1625-.93511,3.17235,3.17235,0,0,1-1.2375-2.69495,3.80117,3.80117,0,0,1,.5363-1.99375,4.28985,4.28985,0,0,1,1.65-1.5125,8.70434,8.70434,0,0,1,2.87367-.89375q.90738-.13737,1.74628-.3024.8379-.16515,1.59495-.35744.75531-.19215,1.43006-.4125.67272-.21995,1.27872-.46756Z" fill="#fff"/><path d="M117.98881,26.16585a5.52754,5.52754,0,0,1,3.46516-1.14136,5.37522,5.37522,0,0,1,4.1387,1.74614,8.4152,8.4152,0,0,1,1.91131,5.07381h14.07993a18.16284,18.16284,0,0,0-2.52992-9.58365,16.7308,16.7308,0,0,0-7.05386-6.325,24.12385,24.12385,0,0,0-10.76624-2.24136,23.77214,23.77214,0,0,0-11.77009,2.73631,18.6098,18.6098,0,0,0-7.50745,7.64495A23.90425,23.90425,0,0,0,99.34384,35.4745a23.90273,23.90273,0,0,0,2.61251,11.39881,18.60659,18.60659,0,0,0,7.50745,7.645,23.76633,23.76633,0,0,0,11.77009,2.73631,23.95852,23.95852,0,0,0,10.79376-2.25505,16.54858,16.54858,0,0,0,6.99868-6.39376,19.14905,19.14905,0,0,0,2.55758-9.72115H127.504a9.39163,9.39163,0,0,1-.97633,3.7262,5.81059,5.81059,0,0,1-2.10373,2.30984,5.61447,5.61447,0,0,1-2.96995.78391,5.52431,5.52431,0,0,1-3.46516-1.14136,7.30684,7.30684,0,0,1-2.30984-3.4375,17.22645,17.22645,0,0,1-.825-5.76131,17.2269,17.2269,0,0,1,.825-5.761A7.30952,7.30952,0,0,1,117.98881,26.16585Z" fill="#fff"/><polygon points="189.33 14.244 172.28 14.244 162.05 28.435 161.5 28.435 161.5 0.164 146.32 0.164 146.32 56.485 161.5 56.485 161.5 44.507 163.774 41.602 172.39 56.485 189.77 56.485 174.963 32.756 189.33 14.244" fill="#fff"/><path d="M211.99512,57.08941a26.01182,26.01182,0,0,0,4.46876-.57739q1.88324-.4395,2.9012-.74256l-2.2-10.66995q-.4407.11037-1.36118.275a9.27694,9.27694,0,0,1-1.60877.16489,3.92284,3.92284,0,0,1-1.62248-.2887,1.89705,1.89705,0,0,1-.935-.88005,3.204,3.204,0,0,1-.30253-1.47115V25.24443h7.26v-11h-7.26V4.12447H196.15522v10.12h-5.39017v11h5.39017V44.32956a13.63357,13.63357,0,0,0,1.73244,7.36995,10.33908,10.33908,0,0,0,5.335,4.30386A21.43717,21.43717,0,0,0,211.99512,57.08941Z" fill="#fff"/><path d="M258.21236,15.72953a14.60259,14.60259,0,0,0-7.79615-2.03511,13.86113,13.86113,0,0,0-8.00267,2.26875,12.408,12.408,0,0,0-4.75745,6.31131h-.4399V.16436H222.58613V56.48462h15.18006V32.72449a8.12286,8.12286,0,0,1,.78365-3.5887,5.44716,5.44716,0,0,1,2.145-2.31011,6.28932,6.28932,0,0,1,3.23125-.8113,5.689,5.689,0,0,1,4.49641,1.7875,7.07737,7.07737,0,0,1,1.55359,4.92261V56.48462h15.18007v-26.95a17.523,17.523,0,0,0-1.8012-8.19522A13.83884,13.83884,0,0,0,258.21236,15.72953Z" fill="#fff"/><path d="M301.49321,55.48077a17.39042,17.39042,0,0,0,7.05359-5.00506,15.70715,15.70715,0,0,0,3.38259-7.63126h-13.86a5.04184,5.04184,0,0,1-1.375,2.02141,6.338,6.338,0,0,1-2.24136,1.27859,8.95242,8.95242,0,0,1-2.87367.44016,7.66528,7.66528,0,0,1-3.85-.90771,6.17479,6.17479,0,0,1-2.44747-2.5024,7.57133,7.57133,0,0,1-.85253-3.63005v-.65984h27.5V35.36439a25.94621,25.94621,0,0,0-1.485-9.04735,19.16205,19.16205,0,0,0-4.23511-6.83392,18.24033,18.24033,0,0,0-6.6274-4.30359,24.05329,24.05329,0,0,0-8.66251-1.48511A22.6845,22.6845,0,0,0,279.56194,16.417a18.86425,18.86425,0,0,0-7.45267,7.61756,23.74406,23.74406,0,0,0-2.6399,11.43991,24.3688,24.3688,0,0,0,2.6262,11.7012,17.89808,17.89808,0,0,0,7.50746,7.48007,24.46274,24.46274,0,0,0,11.64642,2.5988A27.20894,27.20894,0,0,0,301.49321,55.48077ZM285.40569,27.30694a6.38419,6.38419,0,0,1,2.46117-2.15865,7.34407,7.34407,0,0,1,3.38259-.78391,7.218,7.218,0,0,1,3.39614.78391,6.22675,6.22675,0,0,1,2.39256,2.17234,5.96918,5.96918,0,0,1,.92114,3.20386H284.42936A5.97049,5.97049,0,0,1,285.40569,27.30694Z" fill="#fff"/><polygon points="365.219 56.485 365.219 0.164 349.929 0.164 349.929 29.644 349.489 29.644 329.469 0.164 316.489 0.164 316.489 56.485 331.779 56.485 331.779 26.894 332.109 26.894 352.459 56.485 365.219 56.485" fill="#fff"/><path d="M410.92518,46.87331a23.91054,23.91054,0,0,0,2.61251-11.39881,23.91207,23.91207,0,0,0-2.61251-11.39882,18.61908,18.61908,0,0,0-7.50758-7.64495,26.6818,26.6818,0,0,0-23.53992,0,18.60816,18.60816,0,0,0-7.50745,7.64495,23.9011,23.9011,0,0,0-2.6125,11.39882,23.89958,23.89958,0,0,0,2.6125,11.39881,18.605,18.605,0,0,0,7.50745,7.645,26.6818,26.6818,0,0,0,23.53992,0A18.61587,18.61587,0,0,0,410.92518,46.87331ZM397.25775,41.057a8.39154,8.39154,0,0,1-2.17261,3.68511,4.74482,4.74482,0,0,1-3.32739,1.29255,5.0826,5.0826,0,0,1-3.49256-1.29255,8.11433,8.11433,0,0,1-2.22753-3.68511,18.65424,18.65424,0,0,1-.77008-5.69256,18.62656,18.62656,0,0,1,.77008-5.70626,8.11741,8.11741,0,0,1,2.22753-3.67114,5.08383,5.08383,0,0,1,3.49256-1.29256,4.746,4.746,0,0,1,3.32739,1.29256,8.39524,8.39524,0,0,1,2.17261,3.67114,18.6557,18.6557,0,0,1,.76995,5.70626A18.68359,18.68359,0,0,1,397.25775,41.057Z" fill="#fff"/><path d="M446.82655,14.27208a13.80042,13.80042,0,0,0-1.88391-.42646,12.877,12.877,0,0,0-1.96609-.1512,9.02227,9.02227,0,0,0-5.89881,2.0625,12.04865,12.04865,0,0,0-3.67128,6.51756h-.44V14.24442H418.22652v42.2402h15.17994v-22a8.435,8.435,0,0,1,1.01742-4.22141,7.26827,7.26827,0,0,1,2.79136-2.80506,7.98235,7.98235,0,0,1,4.0012-1.00359,25.032,25.032,0,0,1,2.83245.19256,13.61272,13.61272,0,0,1,2.77766.57739Z" fill="#fff"/><path d="M502.05085,13.69442a14.32412,14.32412,0,0,0-8.195,2.3512,10.80112,10.80112,0,0,0-4.56516,6.22886h-.4399a9.41106,9.41106,0,0,0-3.87753-6.22886,13.65909,13.65909,0,0,0-15.26251-.04109,12.325,12.325,0,0,0-4.51,6.27h-.44V14.24442h-14.41v42.2402h15.18006V31.84444a7.495,7.495,0,0,1,.61875-3.1762,4.69157,4.69157,0,0,1,1.74615-2.04881,4.92781,4.92781,0,0,1,2.695-.71489,4.78521,4.78521,0,0,1,3.76755,1.58125,6.33911,6.33911,0,0,1,1.40253,4.35865V56.48462h14.5201V31.84444a6.4647,6.4647,0,0,1,1.36117-4.35865,4.62708,4.62708,0,0,1,3.69867-1.58125,4.78524,4.78524,0,0,1,3.76756,1.58125,6.33911,6.33911,0,0,1,1.40253,4.35865V56.48462h15.17993V27.99444q0-6.48963-3.78125-10.395A13.1096,13.1096,0,0,0,502.05085,13.69442Z" fill="#fff"/><path d="M545.68391,50.54446v5.94016h14.19V27.55454a11.48615,11.48615,0,0,0-1.33378-5.45891,13.19171,13.19171,0,0,0-3.86384-4.4,19.27848,19.27848,0,0,0-6.13245-2.94229,28.866,28.866,0,0,0-8.1399-1.05891,24.78774,24.78774,0,0,0-10.50506,1.96636,15.207,15.207,0,0,0-6.39376,5.225,14.39934,14.39934,0,0,0-2.4613,7.10865h13.97a4.02492,4.02492,0,0,1,1.6363-2.9012,6.05048,6.05048,0,0,1,3.53378-.94881,5.56136,5.56136,0,0,1,3.24509.88006,2.89537,2.89537,0,0,1,1.26489,2.53v.10984a2.31262,2.31262,0,0,1-.9625,1.939,7.5987,7.5987,0,0,1-3.12115,1.12739,56.94348,56.94348,0,0,1-5.70625.67381,29.58272,29.58272,0,0,0-6.09137,1.07234,15.55215,15.55215,0,0,0-4.9363,2.39255,10.67439,10.67439,0,0,0-3.3,4.02886,13.57743,13.57743,0,0,0-1.18245,5.92621,12.53561,12.53561,0,0,0,1.76011,6.93006,10.65291,10.65291,0,0,0,4.8536,4.05625,17.89308,17.89308,0,0,0,7.13631,1.33364,18.23023,18.23023,0,0,0,5.04628-.65984,11.48842,11.48842,0,0,0,4.09748-2.11755,12.29273,12.29273,0,0,0,3.06636-3.82261Zm-.87992-9.02a5.48634,5.48634,0,0,1-.9625,3.27261,6.2795,6.2795,0,0,1-2.48884,2.06251,7.58241,7.58241,0,0,1-3.25878.71489,5.09855,5.09855,0,0,1-3.1625-.93511,3.17235,3.17235,0,0,1-1.2375-2.69495,3.80247,3.80247,0,0,1,.5363-1.99375,4.28985,4.28985,0,0,1,1.65-1.5125,8.70623,8.70623,0,0,1,2.87381-.89375q.90738-.13737,1.74614-.3024.8379-.16515,1.59495-.35744.75552-.19215,1.43006-.4125.67293-.21995,1.27886-.46756Z" fill="#fff"/><rect x="565.61538" y="0.16436" width="15.18007" height="56.32027" fill="#fff"/><path d="M610.58947,23.25364H598.24373v-.15791l6.191-6.91046q2.07137-2.29171,3.24146-3.87579a12.14614,12.14614,0,0,0,1.65188-2.87622,7.593,7.593,0,0,0,.48125-2.66917,6.5191,6.5191,0,0,0-.92651-3.43669A6.69025,6.69025,0,0,0,606.33556.89617,7.528,7.528,0,0,0,602.63085,0,7.70309,7.70309,0,0,0,598.859.91416a6.811,6.811,0,0,0-2.62015,2.51636,7.02615,7.02615,0,0,0-.95646,3.67464h2.18107a5.3461,5.3461,0,0,1,.63419-2.63211,4.61627,4.61627,0,0,1,1.785-1.80388,5.32915,5.32915,0,0,1,2.6873-.65823,5.60754,5.60754,0,0,1,2.6082.59727,4.48523,4.48523,0,0,1,2.48615,4.15588,5.89145,5.89145,0,0,1-.44432,2.25506,10.74485,10.74485,0,0,1-1.42053,2.36409q-.97465,1.2798-2.57128,3.08328l-8.15373,9.16524v1.66988h15.51509Z" fill="#fff"/><path d="M617.94667,24.1251a7.40418,7.40418,0,0,0,8.98222,0,9.50871,9.50871,0,0,0,2.85233-4.393,21.28347,21.28347,0,0,0,.99257-6.91018,21.17772,21.17772,0,0,0-.99257-6.8922,9.54994,9.54994,0,0,0-2.86441-4.4,7.32248,7.32248,0,0,0-8.95819,0,9.54119,9.54119,0,0,0-2.86333,4.4,21.1545,21.1545,0,0,0-.99339,6.8922,21.26012,21.26012,0,0,0,.99339,6.91018A9.49918,9.49918,0,0,0,617.94667,24.1251Zm-.006-19.268a4.99778,4.99778,0,0,1,4.49722-2.84614,4.64949,4.64949,0,0,1,3.28443,1.2794,8.22935,8.22935,0,0,1,2.109,3.69961,20.19954,20.19954,0,0,1,.73732,5.83194q0,5.13047-1.62167,7.95164a4.9923,4.9923,0,0,1-4.509,2.82144,4.6687,4.6687,0,0,1-3.2847-1.26758,8.12268,8.12268,0,0,1-2.10788-3.68081,20.069,20.069,0,0,1-.73746-5.82469A16.11614,16.11614,0,0,1,617.94063,4.85708Z" fill="#fff"/><path d="M610.58947,54.43286H598.24373v-.159l6.191-6.91046q2.07137-2.2905,3.24146-3.87578a12.13787,12.13787,0,0,0,1.65188-2.87542,7.59951,7.59951,0,0,0,.48125-2.66917,6.524,6.524,0,0,0-.92651-3.4375,6.69039,6.69039,0,0,0-2.54725-2.43123,7.52769,7.52769,0,0,0-3.70471-.89536,7.70256,7.70256,0,0,0-3.77186.91336,6.82075,6.82075,0,0,0-2.62015,2.51716,7.02411,7.02411,0,0,0-.95646,3.67464h2.18107a5.34175,5.34175,0,0,1,.63419-2.63211,4.611,4.611,0,0,1,1.785-1.80388,5.32086,5.32086,0,0,1,2.6873-.65823,5.60754,5.60754,0,0,1,2.6082.59727A4.55638,4.55638,0,0,1,607,35.45086a4.61048,4.61048,0,0,1,.66427,2.49219,5.88741,5.88741,0,0,1-.44432,2.25425,10.72976,10.72976,0,0,1-1.42053,2.3649q-.97465,1.27858-2.57128,3.08355l-8.15373,9.16417v1.66987h15.51509Z" fill="#fff"/><path d="M625.57269,42.5622q-.97445,1.27858-2.57114,3.08355l-8.15387,9.16417v1.66987h15.51523V54.43286H618.01717v-.159l6.191-6.91046q2.07136-2.2905,3.24146-3.87578a12.13233,12.13233,0,0,0,1.65175-2.87542,7.59657,7.59657,0,0,0,.48125-2.66917,6.52389,6.52389,0,0,0-.92638-3.4375,6.69136,6.69136,0,0,0-2.54724-2.43123,7.52813,7.52813,0,0,0-3.70472-.89536,7.7025,7.7025,0,0,0-3.77185.91336,6.822,6.822,0,0,0-2.62029,2.51716,7.02526,7.02526,0,0,0-.95633,3.67464h2.18094a5.34029,5.34029,0,0,1,.63432-2.63211,4.61155,4.61155,0,0,1,1.78482-1.80388,5.32136,5.32136,0,0,1,2.68743-.65823,5.60748,5.60748,0,0,1,2.6082.59727,4.55723,4.55723,0,0,1,1.82188,1.66369,4.61041,4.61041,0,0,1,.66414,2.49219,5.88728,5.88728,0,0,1-.44419,2.25425A10.72536,10.72536,0,0,1,625.57269,42.5622Z" fill="#fff"/><path d="M28.34611,107.25547a17.61711,17.61711,0,0,0-3.90546-2.2948,33.2123,33.2123,0,0,0-4.26385-1.50149l-4.69944-1.34868a26.4633,26.4633,0,0,1-3.18748-1.13142,14.492,14.492,0,0,1-2.87152-1.62073A7.292,7.292,0,0,1,7.3623,97.08476a6.095,6.095,0,0,1-.76149-3.08946A7.19538,7.19538,0,0,1,7.939,89.72045a8.9233,8.9233,0,0,1,3.69827-2.9482,13.18821,13.18821,0,0,1,5.47154-1.06589,11.83915,11.83915,0,0,1,7.33182,2.19731,8.09813,8.09813,0,0,1,3.2855,5.91761H31.6637a11.00713,11.00713,0,0,0-2.01228-6.05887A12.82131,12.82131,0,0,0,24.5713,83.5743a16.91485,16.91485,0,0,0-7.35317-1.523,17.35286,17.35286,0,0,0-7.40836,1.534,12.88418,12.88418,0,0,0-5.22111,4.26438,10.68637,10.68637,0,0,0-1.9254,6.31964,9.31993,9.31993,0,0,0,2.89341,7.049,19.80614,19.80614,0,0,0,8.13668,4.32964l5.33028,1.56621a29.44638,29.44638,0,0,1,4.86232,1.84927,9.17027,9.17027,0,0,1,3.27422,2.57813,6.05956,6.05956,0,0,1,1.1752,3.79629,7.66387,7.66387,0,0,1-1.49062,4.68844,9.756,9.756,0,0,1-4.09009,3.133,14.84876,14.84876,0,0,1-5.92848,1.12041,14.916,14.916,0,0,1-5.43891-.94612,9.5282,9.5282,0,0,1-3.95958-2.7739,7.77515,7.77515,0,0,1-1.74023-4.46017H1.50995a11.80305,11.80305,0,0,0,2.154,6.20067,12.75392,12.75392,0,0,0,5.265,4.18785A19.06072,19.06072,0,0,0,16.82618,128a18.96379,18.96379,0,0,0,8.28908-1.66423,12.704,12.704,0,0,0,5.30839-4.51415,11.53578,11.53578,0,0,0,1.8494-6.41819,9.90509,9.90509,0,0,0-1.0769-4.77571A10.65975,10.65975,0,0,0,28.34611,107.25547Z" fill="#c9ecf6"/><path d="M83.34576,111.9004a12.55978,12.55978,0,0,1-1.57749,6.32044,11.25591,11.25591,0,0,1-4.47091,4.36214,15.18327,15.18327,0,0,1-13.52133,0,11.3472,11.3472,0,0,1-4.47091-4.36214,12.4916,12.4916,0,0,1-1.5881-6.32044V82.68216H53.64868v29.50157a15.50684,15.50684,0,0,0,2.13206,8.11465A15.21954,15.21954,0,0,0,61.72,125.9332,18.17863,18.17863,0,0,0,70.53112,128a18.24108,18.24108,0,0,0,8.8223-2.05606,15.138,15.138,0,0,0,5.92849-5.63455,15.56863,15.56863,0,0,0,2.13219-8.12566V82.68216H83.34576Z" fill="#c9ecf6"/><path d="M135.215,107.25547a17.61326,17.61326,0,0,0-3.90533-2.2948,33.21925,33.21925,0,0,0-4.26385-1.50149l-4.69944-1.34868a26.456,26.456,0,0,1-3.18748-1.13142,14.49714,14.49714,0,0,1-2.87166-1.62073,7.29539,7.29539,0,0,1-2.056-2.27359,6.0963,6.0963,0,0,1-.76136-3.08946,7.19615,7.19615,0,0,1,1.33808-4.27485,8.9246,8.9246,0,0,1,3.6984-2.9482,13.18779,13.18779,0,0,1,5.47154-1.06589,11.83941,11.83941,0,0,1,7.33182,2.19731,8.09757,8.09757,0,0,1,3.28537,5.91761h3.93768a11.00816,11.00816,0,0,0-2.01228-6.05887,12.82172,12.82172,0,0,0-5.08025-4.18811,16.914,16.914,0,0,0-7.35317-1.523,17.35174,17.35174,0,0,0-7.40822,1.534,12.88369,12.88369,0,0,0-5.22125,4.26438,10.68627,10.68627,0,0,0-1.92527,6.31964,9.31993,9.31993,0,0,0,2.89341,7.049,19.80529,19.80529,0,0,0,8.13668,4.32964l5.33028,1.56621a29.44953,29.44953,0,0,1,4.86219,1.84927,9.16913,9.16913,0,0,1,3.27422,2.57813,6.05876,6.05876,0,0,1,1.17519,3.79629,7.66376,7.66376,0,0,1-1.49048,4.68844,9.75553,9.75553,0,0,1-4.09022,3.133,16.17852,16.17852,0,0,1-11.36739.17429,9.52987,9.52987,0,0,1-3.95958-2.7739,7.77692,7.77692,0,0,1-1.74023-4.46017h-4.17751a11.80317,11.80317,0,0,0,2.15408,6.20067,12.75305,12.75305,0,0,0,5.265,4.18785,21.42882,21.42882,0,0,0,16.18634-.15227,12.70276,12.70276,0,0,0,5.30826-4.51415,11.53485,11.53485,0,0,0,1.84954-6.41819,9.905,9.905,0,0,0-1.07691-4.77571A10.66,10.66,0,0,0,135.215,107.25547Z" fill="#c9ecf6"/><polygon points="157.232 86.337 171.351 86.337 171.351 127.239 175.42 127.239 175.42 86.337 189.539 86.337 189.539 82.682 157.232 82.682 157.232 86.337" fill="#c9ecf6"/><path d="M216.20875,82.68216l-16.20836,44.55649h4.26425l4.7745-13.42345h18.69035l4.77424,13.42345H236.768L220.55961,82.68216Zm-5.86967,27.478,7.893-22.19123h.30468l7.8927,22.19123Z" fill="#c9ecf6"/><rect x="256.23203" y="82.68216" width="4.0682" height="44.55649" fill="#c9ecf6"/><polygon points="314.844 120.038 314.496 120.038 288.084 82.682 284.146 82.682 284.146 127.239 288.215 127.239 288.215 89.927 288.563 89.927 314.887 127.239 318.847 127.239 318.847 82.682 314.844 82.682 314.844 120.038" fill="#c9ecf6"/><path d="M354.53079,82.68216l-16.20823,44.55649h4.26412l4.7745-13.42345h18.69035l4.77424,13.42345h4.26438L358.88179,82.68216Zm-5.86967,27.478,7.8931-22.19123h.30454l7.89283,22.19123Z" fill="#c9ecf6"/><path d="M419.77555,105.92881a8.5058,8.5058,0,0,0-4.17751-1.51223v-.34805a10.51106,10.51106,0,0,0,3.59-1.762,8.45633,8.45633,0,0,0,2.545-3.19822,11.07965,11.07965,0,0,0,.93592-4.765,12.14526,12.14526,0,0,0-1.458-5.98287,10.29892,10.29892,0,0,0-4.3616-4.15508,15.51551,15.51551,0,0,0-7.25582-1.52324H394.56012v44.55649H410.4203a17.98125,17.98125,0,0,0,7.88652-1.512,10.28217,10.28217,0,0,0,4.60142-4.15562,11.96255,11.96255,0,0,0,1.501-6.01509,12.18349,12.18349,0,0,0-1.30544-5.83087A10.346,10.346,0,0,0,419.77555,105.92881ZM398.62846,86.33746h10.96509q4.56853,0,6.875,2.22981a7.68048,7.68048,0,0,1,2.30608,5.77608,8.55731,8.55731,0,0,1-1.1098,4.37315,7.88412,7.88412,0,0,1-3.08905,3.00244,9.42693,9.42693,0,0,1-4.6127,1.08765H398.62846ZM418.04552,121.299q-2.46917,2.28486-7.62522,2.28459H398.62846V106.41812h11.96586a10.75084,10.75084,0,0,1,5.23239,1.21816,8.809,8.809,0,0,1,4.68817,7.91969A7.49164,7.49164,0,0,1,418.04552,121.299Z" fill="#c9ecf6"/><rect x="446.26312" y="82.68216" width="4.06834" height="44.55649" fill="#c9ecf6"/><polygon points="478.246 82.682 474.177 82.682 474.177 127.239 499.48 127.239 499.48 123.584 478.246 123.584 478.246 82.682" fill="#c9ecf6"/><rect x="519.71263" y="82.68216" width="4.06834" height="44.55649" fill="#c9ecf6"/><polygon points="544.011 86.337 558.13 86.337 558.13 127.239 562.199 127.239 562.199 86.337 576.318 86.337 576.318 82.682 544.011 82.682 544.011 86.337" fill="#c9ecf6"/><polygon points="612.75 103.829 612.359 103.829 599.153 82.682 594.453 82.682 610.531 107.941 610.531 127.239 614.578 127.239 614.578 107.941 630.655 82.682 625.956 82.682 612.75 103.829" fill="#c9ecf6"/></svg>