<svg xmlns="http://www.w3.org/2000/svg" viewBox="0 0 64 64"><path d="M32,0c-8.69156,0-9.77956.03556-13.19289.192A23.51843,23.51843,0,0,0,11.03822,1.68,15.68519,15.68519,0,0,0,5.37067,5.37067,15.6976,15.6976,0,0,0,1.68,11.03822,23.47508,23.47508,0,0,0,.192,18.80889C.03733,22.22044,0,23.30666,0,32s.03556,9.77955.192,13.19288A23.51832,23.51832,0,0,0,1.68,52.96177a15.68523,15.68523,0,0,0,3.69067,5.66756A15.69917,15.69917,0,0,0,11.03822,62.32a23.47294,23.47294,0,0,0,7.76889,1.488C22.22044,63.96267,23.30844,64,32,64s9.77955-.03556,13.19288-.192a23.5183,23.5183,0,0,0,7.76889-1.488A16.36129,16.36129,0,0,0,62.32,52.96177a23.47282,23.47282,0,0,0,1.488-7.76888C63.96267,41.77955,64,40.69155,64,32s-.03556-9.77955-.192-13.19289a23.51828,23.51828,0,0,0-1.488-7.76888,15.687,15.687,0,0,0-3.69066-5.66756A15.69772,15.69772,0,0,0,52.96177,1.68,23.475,23.475,0,0,0,45.19111.192C41.77955.03733,40.69333,0,32,0Zm0,5.76533c8.544,0,9.55733.03378,12.93155.18667a17.66934,17.66934,0,0,1,5.94134,1.10222,9.92688,9.92688,0,0,1,3.68,2.39289,9.90488,9.90488,0,0,1,2.39289,3.68A17.66868,17.66868,0,0,1,58.048,19.06844c.15289,3.37422.18667,4.38756.18667,12.93156s-.03378,9.55733-.18667,12.93155a17.66934,17.66934,0,0,1-1.10222,5.94134,10.58559,10.58559,0,0,1-6.07288,6.07288A17.66882,17.66882,0,0,1,44.93155,58.048c-3.37422.15289-4.38577.18667-12.93155.18667s-9.55733-.03378-12.93155-.18667a17.66928,17.66928,0,0,1-5.94134-1.10222,9.91286,9.91286,0,0,1-3.68-2.39289,9.91464,9.91464,0,0,1-2.39288-3.68A17.66927,17.66927,0,0,1,5.952,44.93155C5.79911,41.55733,5.76534,40.544,5.76534,32s.03377-9.55733.18666-12.93155a17.66928,17.66928,0,0,1,1.10222-5.94134,9.927,9.927,0,0,1,2.39289-3.68,9.90486,9.90486,0,0,1,3.68-2.39288A17.66921,17.66921,0,0,1,19.06845,5.952C22.44267,5.79911,23.456,5.76534,32,5.76533Z" fill="#fff" fill-rule="evenodd"/><path d="M32,42.67733a10.67733,10.67733,0,1,1-.00174-21.35466H32a10.67733,10.67733,0,0,1,0,21.35466ZM32,15.552a16.448,16.448,0,1,0-.01128,32.896H32a16.448,16.448,0,0,0,0-32.896Zm21.23377-.29867a3.888,3.888,0,1,1-3.888-3.888,3.888,3.888,0,0,1,3.888,3.888" fill="#fff" fill-rule="evenodd"/></svg>