<svg xmlns="http://www.w3.org/2000/svg" viewBox="0 0 64 64"><path d="M59.35,0H4.65A4.65,4.65,0,0,0,0,4.65v54.7A4.65,4.65,0,0,0,4.65,64h54.7A4.65,4.65,0,0,0,64,59.35V4.65A4.65005,4.65005,0,0,0,59.35,0ZM18.93054,54.53424H9.53094V23.88715h9.3996Zm.7677-40.30414A5.51047,5.51047,0,0,1,14.22906,19.702l-.00384.001a5.50553,5.50553,0,1,1,5.473-5.53784C19.69836,14.18677,19.69836,14.20837,19.69824,14.2301ZM54.46729,54.53424H45.06677V37.66534c0-3.09076-1.09442-6.05224-5.08624-6.05224-4.05585,0-5.72955,2.89734-5.72955,6.43811v16.4801l-9.39948.00293V23.88715h9.0788v4.31347h.12829A11.87064,11.87064,0,0,1,43.845,23.24377c7.14557,0,10.62226,4.8927,10.62226,11.26667Z" fill="#fff"/></svg>