<svg xmlns="http://www.w3.org/2000/svg" viewBox="0 0 96 96"><circle cx="48" cy="48" r="48" fill="#001651"/><path d="M49.23667,30.03333,52.151,35.76867h4.963a1.358,1.358,0,0,1,.97766,2.33333l-4.557,4.473,2.52466,5.79833A1.37433,1.37433,0,0,1,54.10167,50.093L48,46.66067,41.89833,50.1a1.37433,1.37433,0,0,1-1.95766-1.71967L42.46533,42.575l-4.557-4.48467A1.358,1.358,0,0,1,38.886,35.757h4.963l2.91433-5.72367a1.386,1.386,0,0,1,2.47334,0Z" fill="none" stroke="#56b190" stroke-miterlimit="10" stroke-width="3"/><path d="M65.5,30.5c7.85167,0,6.43067-1.05467,8.75,17.5" fill="none" stroke="#fff" stroke-linecap="round" stroke-linejoin="round" stroke-width="3"/><path d="M30.5,30.5c-8.84333,0-6.19967-2.89333-8.75,17.5" fill="none" stroke="#fff" stroke-linecap="round" stroke-linejoin="round" stroke-width="3"/><path d="M61.104,74.25H34.896" fill="none" stroke="#fff" stroke-linecap="round" stroke-linejoin="round" stroke-width="3"/><path d="M30.5,44.5V25.25a3.5,3.5,0,0,1,3.5-3.5H62a3.5,3.5,0,0,1,3.5,3.5V44.5C65.5,65.51866,30.5,65.54667,30.5,44.5Z" fill="none" stroke="#fff" stroke-linecap="round" stroke-linejoin="round" stroke-width="3"/><path d="M48,74.25v-14" fill="none" stroke="#fff" stroke-linecap="round" stroke-linejoin="round" stroke-width="3"/></svg>