<svg xmlns="http://www.w3.org/2000/svg" viewBox="0 0 96 96"><circle cx="48" cy="48" r="48" fill="#001651"/><path d="M21.75,48A26.25,26.25,0,1,0,48,21.75,26.25,26.25,0,0,0,21.75,48Z" fill="none" stroke="#fff" stroke-linecap="round" stroke-linejoin="round" stroke-width="3"/><path d="M44.5,46.25a3.5,3.5,0,1,0,3.5-3.5A3.5,3.5,0,0,0,44.5,46.25Z" fill="none" stroke="#a6568c" stroke-linecap="round" stroke-linejoin="round" stroke-width="3"/><path d="M58.5,60.25a3.5,3.5,0,0,1-3.5,3.5H41a3.5,3.5,0,0,1,0-7H55A3.5,3.5,0,0,1,58.5,60.25Z" fill="none" stroke="#fff" stroke-linecap="round" stroke-linejoin="round" stroke-width="3"/><path d="M41.41533,28.162l1.197,3.28767" fill="none" stroke="#fff" stroke-linecap="round" stroke-linejoin="round" stroke-width="3"/><path d="M31.32833,36.625l3.031,1.75" fill="none" stroke="#fff" stroke-linecap="round" stroke-linejoin="round" stroke-width="3"/><path d="M29.04167,49.59367l3.44866-.609" fill="none" stroke="#fff" stroke-linecap="round" stroke-linejoin="round" stroke-width="3"/><path d="M54.58467,28.162l-1.197,3.28767" fill="none" stroke="#fff" stroke-linecap="round" stroke-linejoin="round" stroke-width="3"/><path d="M64.67167,36.625,51.031,44.5" fill="none" stroke="#a6568c" stroke-linecap="round" stroke-linejoin="round" stroke-width="3"/><path d="M66.95833,49.59367l-3.44867-.609" fill="none" stroke="#fff" stroke-linecap="round" stroke-linejoin="round" stroke-width="3"/></svg>