<svg xmlns="http://www.w3.org/2000/svg" viewBox="0 0 96 96"><circle cx="48" cy="48" r="48" fill="#001651"/><line x1="71.58045" y1="58.22942" x2="55.82222" y2="61.35831" fill="none" stroke="#fff" stroke-linecap="round" stroke-linejoin="round" stroke-width="3"/><path d="M24.33422,58.25787h6.96889l9.984,11.20711a4.01068,4.01068,0,0,0,2.84445,1.30844A131.357,131.357,0,0,0,60.45867,56.86409c.31289-.88178-.28445-1.76356-.82489-2.50311l-7.13956-9.216" fill="none" stroke="#fff" stroke-linecap="round" stroke-linejoin="round" stroke-width="3"/><path d="M43.96089,38.00542l-.99556-.85333a6.144,6.144,0,0,0-3.49866-1.13778A5.91658,5.91658,0,0,0,37.248,36.441L24.53333,41.50409" fill="none" stroke="#fff" stroke-linecap="round" stroke-linejoin="round" stroke-width="3"/><path d="M55.82222,44.03565l-9.81333,3.24266A4.57955,4.57955,0,0,1,40.32,44.83209,4.63644,4.63644,0,0,1,42.42489,38.745l9.55733-4.80711a6.54224,6.54224,0,0,1,3.01511-.71111,6.969,6.969,0,0,1,2.27556.39822l14.22222,5.17689" fill="none" stroke="#fff" stroke-linecap="round" stroke-linejoin="round" stroke-width="3"/><path d="M16,36.64009h5.68889A2.84445,2.84445,0,0,1,24.53333,39.257V57.51832a2.84443,2.84443,0,0,1-2.84444,2.58844H16" fill="none" stroke="#a6568c" stroke-linecap="round" stroke-linejoin="round" stroke-width="3"/><path d="M80,60.10676H74.31111a2.84443,2.84443,0,0,1-2.84444-2.58844V39.257a2.84445,2.84445,0,0,1,2.84444-2.61689H80" fill="none" stroke="#a6568c" stroke-linecap="round" stroke-linejoin="round" stroke-width="3"/></svg>