<svg xmlns="http://www.w3.org/2000/svg" viewBox="0 0 96 96"><circle cx="48" cy="48" r="48" fill="#001651"/><path d="M21.27819,53.6796v21" fill="none" stroke="#fff" stroke-linecap="round" stroke-linejoin="round" stroke-width="3"/><path d="M21.27819,71.1796h38.5a7,7,0,0,0-7-7h-8.75a7,7,0,0,0-7-7h-15.75" fill="none" stroke="#fff" stroke-linecap="round" stroke-linejoin="round" stroke-width="3"/><path d="M35.27819,64.1796h8.75" fill="none" stroke="#fff" stroke-linecap="round" stroke-linejoin="round" stroke-width="3"/><path d="M66.75486,62.44827a17.44166,17.44166,0,0,0-4.718-30.471l4.32367-7.39667a1.58436,1.58436,0,0,0,0-1.603,1.64969,1.64969,0,0,0-1.42567-.798H47.62152a1.64971,1.64971,0,0,0-1.421.798,1.58436,1.58436,0,0,0,0,1.603l4.32367,7.39667a17.44633,17.44633,0,0,0-11.746,16.45233" fill="none" stroke="#fff" stroke-linecap="round" stroke-linejoin="round" stroke-width="3"/><path d="M51.49486,52.73227a5.18936,5.18936,0,0,0,4.33533,2.04167c2.65767,0,4.81367-1.617,4.81367-3.60967s-2.156-3.60734-4.81367-3.60734-4.802-1.617-4.802-3.612,2.156-3.60967,4.81133-3.60967a5.18234,5.18234,0,0,1,4.33534,2.04167" fill="none" stroke="#56b190" stroke-linecap="round" stroke-linejoin="round" stroke-width="3"/><path d="M55.83952,54.77394V57.1796" fill="none" stroke="#56b190" stroke-linecap="round" stroke-linejoin="round" stroke-width="3"/><path d="M55.83952,37.9296v2.40567" fill="none" stroke="#56b190" stroke-linecap="round" stroke-linejoin="round" stroke-width="3"/></svg>