<svg preserveAspectRatio="xMidYMid meet" xmlns="http://www.w3.org/2000/svg">
	<symbol id="arrows" viewBox="0 0 160 160">
		<path d="M0,0,80,80,0,160ZM160,80,80,0V160Z" fill="#fff"/>
	</symbol>
	<symbol id="bars" viewBox="0 0 160 160">
		<path d="M0,128H160v32H0ZM0,0V32H160V0ZM0,96H160V64H0Z" fill="#fff"/>
	</symbol>
	<symbol id="circle" viewBox="0 0 160 160">
		<circle cx="80" cy="80" r="56" fill="#0cc"/>
	</symbol>
	<symbol id="donut" viewBox="0 0 160 160">
		<path d="M80,152a72,72,0,1,1,72-72A72.08145,72.08145,0,0,1,80,152ZM80,40a40,40,0,1,0,40,40A40.04541,40.04541,0,0,0,80,40Z" fill="#fff"/>
	</symbol>
	<symbol id="dots" viewBox="0 0 160 160">
		<path d="M55.90356,39.95178A15.95178,15.95178,0,1,1,39.95178,24,15.95178,15.95178,0,0,1,55.90356,39.95178ZM120,56a16,16,0,1,0-16-16A16,16,0,0,0,120,56ZM39.95178,104.09644a15.95178,15.95178,0,1,0,15.95178,15.95178A15.95174,15.95174,0,0,0,39.95178,104.09644ZM120,104a16,16,0,1,0,16,16A16,16,0,0,0,120,104Z" fill="#0cc"/>
	</symbol>
	<symbol id="hole" viewBox="0 0 160 160">
		<path d="M0,0V160H160V0ZM80,136a56,56,0,1,1,56-56A56,56,0,0,1,80,136Z" fill="#fff"/>
	</symbol>
	<symbol id="lines" viewBox="0 0 160 160">
		<path d="M116.22868,160,160,116.22852v7.54231L123.771,160Zm-45.79053,0L160,70.43815V62.89551L62.89571,160Zm26.66626,0L160,97.10417V89.56185L89.56213,160Zm-79.99959,0L160,17.10482V9.56217L9.56246,160Zm26.66666,0L160,43.77148V36.22884L36.22909,160Zm106.66606,0L160,150.4375v-7.54232L142.89526,160ZM0,36.22852v7.54264L43.77124,0H36.2286ZM0,142.89583v7.54232L150.43815,0h-7.5426ZM0,62.89518v7.54265L70.438,0H62.8953ZM0,9.56185v7.54264L17.10453,0H9.56189ZM0,89.5625v7.54232L97.10482,0H89.5623Zm0,26.66667v7.54231L123.77148,0h-7.54256Z" fill="#fff"/>
	</symbol>
	<symbol id="triangles" viewBox="0 0 160 160">
		<path d="M80,0,0,80V0ZM0,160,80,80H0ZM80,0V80L160,0Zm0,160,80-80H80Z" fill="#fff"/>
	</symbol>
</svg>