<svg xmlns="http://www.w3.org/2000/svg" viewBox="0 0 131.99999 64"><path d="M57.98912,19.51477A12,12,0,0,0,49.50377,16H32V48H44V28H47.8469a4.00636,4.00636,0,0,1,2.83118,1.17151l4.14478,4.14209A4.005,4.005,0,0,1,56,36.14208V48H68V34.48523A12.0057,12.0057,0,0,0,64.47983,26Z" fill="#fff"/><path d="M120,16V27.85791a4.00488,4.00488,0,0,1-1.17713,2.82837l-4.1477,4.1421A3.99944,3.99944,0,0,1,111.84679,36h-5.76428A11.98322,11.98322,0,0,0,108,29.51465V16H96V27.85791a4.00491,4.00491,0,0,1-1.17712,2.82837l-4.14771,4.1421A3.99942,3.99942,0,0,1,87.84679,36H84V16H72V48H89.50378a12.00605,12.00605,0,0,0,8.488-3.51477L102,40.47876V48h11.50378a12.00608,12.00608,0,0,0,8.488-3.51477l6.488-6.48535A12.00529,12.00529,0,0,0,132,29.51465V16Z" fill="#fff"/><polygon points="0 28 8 28 8 48 20 48 20 28 28 28 28 16 0 16 0 28" fill="#fff"/></svg>