<svg xmlns="http://www.w3.org/2000/svg" viewBox="0 0 64 64"><path d="M57.44789,18.94424c.039.56421.039,1.12841.039,1.69782,0,17.35007-13.2082,37.36-37.36,37.36v-.0104A37.17181,37.17181,0,0,1,0,52.10515a26.70968,26.70968,0,0,0,3.12525.18981A26.36619,26.36619,0,0,0,19.4327,46.66327a13.147,13.147,0,0,1-12.267-9.11834,13.08811,13.08811,0,0,0,5.9281-.22621A13.13156,13.13156,0,0,1,2.561,24.44852v-.1664a13.04726,13.04726,0,0,0,5.95929,1.64323A13.14687,13.14687,0,0,1,4.45647,8.39327,37.26728,37.26728,0,0,0,31.51769,22.11109,13.14281,13.14281,0,0,1,53.89364,10.1353,26.34807,26.34807,0,0,0,62.232,6.94765a13.17935,13.17935,0,0,1-5.77209,7.26191A26.11325,26.11325,0,0,0,64,12.14253,26.67492,26.67492,0,0,1,57.44789,18.94424Z" fill="#fff"/></svg>