<svg xmlns="http://www.w3.org/2000/svg" viewBox="0 0 64 64"><path d="M62.66266,16.49556a8.04168,8.04168,0,0,0-5.65824-5.695C52.01336,9.45455,32,9.45455,32,9.45455s-20.01336,0-25.00441,1.346a8.04173,8.04173,0,0,0-5.65825,5.695C0,21.519,0,32,0,32S0,42.481,1.33736,47.50444a8.04167,8.04167,0,0,0,5.65825,5.695C11.98666,54.54545,32,54.54545,32,54.54545s20.01334,0,25.0044-1.34605a8.04162,8.04162,0,0,0,5.65824-5.695C64,42.481,64,32,64,32S64,21.519,62.66266,16.49556ZM25.45455,41.51594V22.48406l16.72727,9.51623Z" fill="#fff"/></svg>